# xmcd
#
# Track frame offsets:
#	150
#	14725
#	34514
#	49001
#	61359
#	78774
#	91438
#	113088
#	131166
#	144861
#	155800
#	185212
#	198984
#	219771
#	240899
#	253979
#
# Disc length: 3711 seconds
# Revision: 0
# Processed by: cddbd v1.5.2PL0 Copyright (c) Steve Scherf et al.
# Submitted via: dBpowerAMP V12.0
#
DISCID=db0e7d10
DTITLE=Nico Wayne Toussaint - Lonely Number
DYEAR=2011
DGENRE=Blues
TTITLE0=Lonely Number
TTITLE1=One Fine Day
TTITLE2=Time To Party
TTITLE3=Time To Cut You Loose
TTITLE4=How Long To Heal
TTITLE5=Where was I
TTITLE6=My Own Medicine
TTITLE7=High Class In Disguise
TTITLE8=I Love You Through And Through
TTITLE9=Waltering In Montreal
TTITLE10=Deep Down In Florida
TTITLE11=Moliendo Cafe
TTITLE12=My One Last Thing
TTITLE13=She Comes And Go
TTITLE14=Memphis Hat
TTITLE15=Dealing With The Devil
EXTD=
EXTT0=
EXTT1=
EXTT2=
EXTT3=
EXTT4=
EXTT5=
EXTT6=
EXTT7=
EXTT8=
EXTT9=
EXTT10=
EXTT11=
EXTT12=
EXTT13=
EXTT14=
EXTT15=
PLAYORDER=
